<?xml version="1.0" standalone="no"?>
<!DOCTYPE svg PUBLIC "-//W3C//DTD SVG 20010904//EN"
 "http://www.w3.org/TR/2001/REC-SVG-20010904/DTD/svg10.dtd">
<svg version="1.0" xmlns="http://www.w3.org/2000/svg"
 width="16.000000pt" height="16.000000pt" viewBox="0 0 16.000000 16.000000"
 preserveAspectRatio="xMidYMid meet">
<g transform="translate(0.000000,16.000000) scale(0.005000,-0.005000)"
fill="#000000" stroke="none">
<path d="M1395 3189 c-352 -48 -674 -208 -925 -459 -226 -227 -372 -497 -441
-820 -20 -90 -23 -135 -23 -310 0 -175 3 -220 23 -310 32 -151 73 -268 141
-405 219 -440 624 -750 1120 -856 90 -20 135 -23 310 -23 175 0 220 3 310 23
151 32 268 73 405 141 440 219 750 624 856 1120 20 90 23 135 23 310 0 175 -3
220 -23 310 -32 151 -73 268 -141 405 -79 158 -171 286 -300 415 -226 225
-500 373 -815 440 -116 24 -404 35 -520 19z m581 -1110 c47 -14 95 -70 110
-128 38 -148 -89 -275 -237 -237 -187 49 -189 322 -3 371 48 13 70 12 130 -6z"/>
</g>
</svg>
